<?xml version="1.0" standalone="no"?>
<!DOCTYPE svg PUBLIC "-//W3C//DTD SVG 20010904//EN"
 "http://www.w3.org/TR/2001/REC-SVG-20010904/DTD/svg10.dtd">
<svg version="1.0" xmlns="http://www.w3.org/2000/svg"
 width="1000.000000pt" height="1000.000000pt" viewBox="0 0 1000.000000 1000.000000"
 preserveAspectRatio="xMidYMid meet">
<metadata>
Created by potrace 1.14, written by Peter Selinger 2001-2017
</metadata>
<g transform="translate(0.000000,1000.000000) scale(0.100000,-0.100000)"
fill="#000000" stroke="none">
<path d="M0 5000 l0 -5000 5000 0 5000 0 0 5000 0 5000 -5000 0 -5000 0 0
-5000z m2901 3150 c461 -35 798 -153 1094 -384 146 -115 258 -246 346 -408
212 -392 222 -955 22 -1326 -169 -314 -496 -558 -834 -623 -74 -14 -108 -28
-69 -29 40 -1 198 -37 280 -63 376 -125 664 -397 810 -767 104 -263 121 -703
40 -1020 -145 -569 -577 -980 -1193 -1136 -54 -14 -158 -35 -230 -47 -128 -20
-164 -21 -1214 -24 l-1083 -4 0 2921 0 2920 948 0 c547 0 1005 -4 1083 -10z
m3399 -2 c0 -6 142 -475 315 -1042 344 -1130 357 -1175 419 -1450 l43 -188 12
63 c25 130 142 591 211 829 38 135 173 594 298 1020 l228 775 592 3 592 2 0
-2920 0 -2920 -466 0 -465 0 4 1273 c4 1159 6 1303 25 1617 63 998 80 1226
142 1825 47 449 53 516 43 495 -3 -8 -178 -618 -388 -1355 l-381 -1340 -456
-3 -456 -2 -14 47 c-8 27 -187 640 -399 1365 -211 724 -385 1315 -386 1314 -1
-1 11 -121 27 -267 63 -570 125 -1313 172 -2074 19 -319 22 -463 25 -1622 l4
-1273 -465 0 -466 0 0 2920 0 2920 595 0 c445 0 595 -3 595 -12z"/>
<path d="M1850 6539 l0 -791 488 5 c446 4 494 6 572 25 165 39 277 99 381 202
124 123 186 259 209 456 14 121 2 273 -30 379 -59 191 -201 347 -395 432 -167
73 -256 82 -787 83 l-438 0 0 -791z"/>
<path d="M1850 4046 l0 -896 438 0 c480 0 607 8 739 45 244 70 412 206 519
420 61 123 86 241 86 410 1 250 -57 431 -191 596 -121 151 -251 232 -466 291
-77 21 -100 22 -602 26 l-523 3 0 -895z"/>
</g>
</svg>
